<?xml version="1.0" encoding="UTF-8" standalone="no"?>
<!-- Created with Inkscape (http://www.inkscape.org/) -->

<svg
   xmlns:dc="http://purl.org/dc/elements/1.1/"
   xmlns:cc="http://creativecommons.org/ns#"
   xmlns:rdf="http://www.w3.org/1999/02/22-rdf-syntax-ns#"
   xmlns:svg="http://www.w3.org/2000/svg"
   xmlns="http://www.w3.org/2000/svg"
   xmlns:sodipodi="http://sodipodi.sourceforge.net/DTD/sodipodi-0.dtd"
   xmlns:inkscape="http://www.inkscape.org/namespaces/inkscape"
   width="1024"
   height="768"
   viewBox="0 0 270.93333 203.20001"
   version="1.1"
   id="svg8"
   inkscape:version="0.92.5 (2060ec1f9f, 2020-04-08)"
   sodipodi:docname="template.svg"
   inkscape:export-filename="/home/bandithijo/dex/hello_dev_ruby_for_beginner/template_02.png"
   inkscape:export-xdpi="96"
   inkscape:export-ydpi="96">
  <defs
     id="defs2" />
  <sodipodi:namedview
     id="base"
     pagecolor="#ffffff"
     bordercolor="#666666"
     borderopacity="1.0"
     inkscape:pageopacity="0.0"
     inkscape:pageshadow="2"
     inkscape:zoom="0.35286286"
     inkscape:cx="353.8758"
     inkscape:cy="419.38081"
     inkscape:document-units="mm"
     inkscape:current-layer="layer2"
     showgrid="false"
     units="px"
     inkscape:showpageshadow="false"
     inkscape:snap-page="true"
     inkscape:snap-bbox="true"
     inkscape:object-nodes="true"
     inkscape:snap-global="false" />
  <metadata
     id="metadata5">
    <rdf:RDF>
      <cc:Work
         rdf:about="">
        <dc:format>image/svg+xml</dc:format>
        <dc:type
           rdf:resource="http://purl.org/dc/dcmitype/StillImage" />
        <dc:title />
      </cc:Work>
    </rdf:RDF>
  </metadata>
  <g
     inkscape:label="BG"
     inkscape:groupmode="layer"
     id="layer1"
     transform="translate(0,-93.799983)"
     sodipodi:insensitive="true" />
  <g
     inkscape:groupmode="layer"
     id="layer2"
     inkscape:label="Layer 2">
    <g
       id="g1062"
       transform="translate(0,2.8364257e-6)">
      <rect
         y="93.79998"
         x="0"
         height="203.2"
         width="270.93332"
         id="rect815"
         style="fill:#1e1e1e;fill-opacity:1;stroke-width:0.26458332"
         transform="translate(0,-93.799983)" />
      <path
         inkscape:connector-curvature="0"
         id="path869"
         d="m 151.51297,156.09868 c -23.25417,-28.40133 -42.32897,-51.77017 -42.3885,-51.93073 -0.0594,-0.16055 6.2158,-9.706488 13.94513,-21.213166 l 14.05336,-20.921228 h 56.84719 56.84718 l 14.03359,20.89181 c 7.71848,11.490496 14.03361,20.983684 14.03361,21.095934 0,0.27246 -84.54462,103.53361 -84.85165,103.63615 -0.13184,0.0441 -19.26576,-23.15743 -42.51991,-51.55877 z m 56.12637,-10.67328 13.4923,-35.63799 h -27.16149 -27.1615 l 13.49229,35.63799 c 7.42077,19.60091 13.57192,35.638 13.66921,35.638 0.0974,0 6.24844,-16.03709 13.66919,-35.638 z m -42.99623,-7.56167 -10.54472,-27.90076 -12.46099,-0.0922 c -12.04011,-0.0892 -12.44525,-0.0704 -11.99546,0.55353 1.05024,1.45702 45.37943,55.50544 45.45925,55.42622 0.0476,-0.0472 -4.6585,-12.64129 -10.45808,-27.98669 z m 71.39674,-0.16141 22.68286,-27.73935 -12.27522,-0.0923 c -6.75138,-0.0509 -12.38591,0.0281 -12.52116,0.17555 -0.17621,0.19198 -18.30304,47.89216 -21.0512,55.39556 -0.17707,0.48344 -0.14203,0.59284 0.1123,0.35113 0.20326,-0.19313 10.57684,-12.83384 23.0524,-28.0905 z M 164.96382,86.255763 c 5.34801,-6.376232 9.77676,-11.748546 9.84162,-11.938458 0.0761,-0.222892 -5.45452,-0.345305 -15.60072,-0.345305 h -15.71865 l -7.8392,11.680377 c -4.31155,6.424235 -7.83918,11.796542 -7.83918,11.938472 0,0.14194 6.17229,0.25806 13.71623,0.25806 h 13.7162 z m 51.41047,10.783689 c -0.35465,-0.44521 -4.84933,-5.817507 -9.98815,-11.938454 L 197.04284,73.972 h -3.07269 -3.07268 l -9.34333,11.128998 c -5.13881,6.120947 -9.6335,11.493244 -9.98816,11.938454 l -0.64485,0.809457 h 23.04902 23.04901 z m 43.75831,0.551397 c 0,-0.14196 -3.52764,-5.514237 -7.83918,-11.938472 L 244.45423,73.972 h -15.71866 c -10.1462,0 -15.67685,0.122428 -15.60072,0.345305 0.0649,0.189912 4.49359,5.562226 9.84163,11.938458 l 9.72368,11.593146 h 13.71623 c 7.54391,0 13.71621,-0.11616 13.71621,-0.25806 z"
         style="fill:#8c8c8c;fill-opacity:0.02745098;stroke-width:0.35246795" />
      <rect
         y="190.78882"
         x="0"
         height="12.411162"
         width="270.93332"
         id="rect883"
         style="fill:#cc342d;fill-opacity:1;stroke-width:0.19791177" />
      <path
         style="fill:#ffffff;fill-opacity:1;stroke-width:0.04307278"
         d="m 13.273665,200.33048 c -0.562638,-0.56173 -1.022982,-1.0405 -1.022982,-1.06393 0,-0.0235 0.470028,-0.51155 1.044516,-1.08471 l 1.04451,-1.04211 0.258342,0.25602 0.258336,0.25603 -0.785982,0.78684 c -0.432288,0.43276 -0.785976,0.80047 -0.785976,0.81712 0,0.0167 0.350376,0.38157 0.778614,0.81092 0.772284,0.77429 0.777972,0.78137 0.69993,0.87147 -0.115836,0.13374 -0.419868,0.41781 -0.444798,0.4156 -0.01188,-0.001 -0.481878,-0.46151 -1.04451,-1.02325 z m 3.198151,-0.11208 c -0.337933,-0.0971 -0.517435,-0.19524 -0.711007,-0.38881 -0.67164,-0.67163 -0.567282,-1.76088 0.219216,-2.28817 0.437358,-0.29322 0.930985,-0.34533 1.385545,-0.14627 l 0.183066,0.0802 v -0.57906 -0.57906 h 0.366114 0.36612 v 1.98134 1.98135 h -0.36612 c -0.35451,0 -0.366114,-0.003 -0.366114,-0.10019 v -0.1002 l -0.290742,0.0991 c -0.32748,0.1116 -0.504894,0.12059 -0.786078,0.0398 z m 0.758604,-0.86533 c 0.192366,-0.14673 0.290292,-0.34262 0.290292,-0.58073 0,-0.53565 -0.54468,-0.87975 -1.024734,-0.64736 -0.721615,0.34933 -0.416905,1.44356 0.379044,1.36114 0.133452,-0.0138 0.262332,-0.0621 0.355398,-0.13305 z m 2.566734,0.86328 c -0.469362,-0.14653 -0.805524,-0.4295 -0.987732,-0.83144 -0.159606,-0.35209 -0.159798,-0.87264 -4.74e-4,-1.22413 0.271668,-0.59921 0.947154,-0.97002 1.560504,-0.85663 0.730291,0.135 1.193005,0.65665 1.254571,1.41436 l 0.02886,0.35535 h -1.061479 c -0.583812,0 -1.061478,0.0104 -1.061478,0.023 0,0.0784 0.16803,0.25343 0.31569,0.32876 0.218988,0.11172 0.536166,0.091 0.72318,-0.0473 l 0.128814,-0.0952 0.253291,0.27118 c 0.283236,0.30324 0.282696,0.3129 -0.02784,0.49488 -0.365005,0.21391 -0.779197,0.27539 -1.125955,0.16713 z m 0.981936,-1.79427 c 0,-0.0268 -0.06732,-0.11225 -0.149598,-0.18984 -0.267534,-0.25232 -0.695778,-0.24841 -0.952884,0.009 -0.08065,0.0806 -0.146622,0.16535 -0.146622,0.18825 0,0.0249 0.251256,0.0416 0.624552,0.0416 0.436182,0 0.624552,-0.0147 0.624552,-0.0488 z m 1.488529,1.07292 c -0.139188,-0.43299 -0.356604,-1.10117 -0.483144,-1.48482 -0.12654,-0.38366 -0.23007,-0.70832 -0.23007,-0.72147 0,-0.0131 0.180312,-0.0239 0.40071,-0.0239 h 0.400704 l 0.359058,1.10361 c 0.391806,1.20426 0.365436,1.16778 0.50988,0.70545 0.02592,-0.0829 0.166422,-0.52388 0.312258,-0.97991 l 0.265152,-0.82915 h 0.408102 c 0.40344,0 0.40776,10e-4 0.377946,0.0969 -0.08654,0.27809 -0.731226,2.25524 -0.832146,2.55207 l -0.117162,0.34458 -0.55911,0.0119 -0.559104,0.0119 z m -7.390016,-2.42455 -0.234468,-0.23742 0.79269,-0.79356 c 0.683934,-0.68468 0.78504,-0.80278 0.736932,-0.86074 -0.03066,-0.037 -0.383112,-0.39879 -0.783222,-0.80408 l -0.727464,-0.73689 0.118572,-0.13575 c 0.06521,-0.0747 0.179874,-0.18928 0.254802,-0.25473 l 0.13623,-0.119 0.983886,0.98182 c 0.541135,0.53999 1.011535,1.01648 1.045339,1.05886 0.05628,0.0705 -0.02556,0.16412 -0.968803,1.10798 -0.566646,0.56701 -1.050456,1.03093 -1.075134,1.03093 -0.02466,0 -0.150396,-0.10684 -0.27936,-0.23742 z M 2.6454534,195.13269 v -1.95981 h 0.3876541 0.3876541 v 0.56106 0.56105 l 0.1399861,-0.0753 c 0.106146,-0.0571 0.244104,-0.0756 0.5707141,-0.0763 0.3662881,-6e-4 0.4611241,0.0141 0.6338761,0.0998 0.3066421,0.15218 0.5747162,0.41147 0.7097582,0.68649 0.119796,0.24399 0.12096,0.25442 0.134568,1.20449 l 0.01368,0.95836 H 5.2542721 4.885188 l -0.0012,-0.82914 c -4.74e-4,-0.77961 -0.00648,-0.83937 -0.097572,-1.00017 -0.144876,-0.2558 -0.337434,-0.36739 -0.6339541,-0.36739 -0.2706301,0 -0.4569181,0.0946 -0.6205921,0.3153 -0.083346,0.11235 -0.091104,0.18751 -0.1033441,1.00144 l -0.01326,0.87996 H 3.0300775 2.6448834 Z m 4.3406408,1.86704 c -0.3349318,-0.11678 -0.6403019,-0.3986 -0.8138159,-0.75107 -0.1206181,-0.245 -0.1369981,-0.32105 -0.1369981,-0.63606 0,-0.29246 0.0201,-0.40178 0.1102801,-0.59868 0.147228,-0.32158 0.404694,-0.59205 0.7085099,-0.74428 0.220344,-0.11042 0.2946,-0.12491 0.6370687,-0.12437 0.4470541,6e-4 0.6595321,0.0804 0.9899102,0.37119 0.3351787,0.29504 0.4960987,0.68399 0.4960987,1.19909 v 0.21249 l -1.0615928,0.0115 -1.0615988,0.0115 0.113832,0.13524 c 0.233634,0.27757 0.6058027,0.33183 0.9259928,0.13499 l 0.144204,-0.0886 0.264984,0.26643 0.2649901,0.26644 -0.150756,0.12707 c -0.1935541,0.16316 -0.6307022,0.30084 -0.9413702,0.29649 -0.1337227,-0.002 -0.3541027,-0.0421 -0.4897387,-0.0894 z m 1.1350748,-1.74858 c -0.05148,-0.0955 -0.214284,-0.24398 -0.3364561,-0.3069 -0.132978,-0.0685 -0.4691047,-0.0601 -0.6149527,0.0153 -0.123246,0.0637 -0.303174,0.25941 -0.303174,0.32971 0,0.0205 0.29142,0.0373 0.6476047,0.0373 0.6035341,0 0.6448441,-0.005 0.6069781,-0.0754 z m 1.2436389,-0.11846 v -1.95981 h 0.3876541 0.387654 v 1.95981 1.95981 H 9.752462 9.3648079 Z M 10.613,197.07097 c -4.74e-4,-0.0118 -0.0012,-0.88891 -0.0018,-1.94905 l -0.0012,-1.9275 0.368052,-0.0124 0.368058,-0.0124 v 1.96149 1.96149 h -0.36612 c -0.201366,0 -0.366528,-0.01 -0.367032,-0.0215 z m 2.123803,-0.0383 c -0.442836,-0.14474 -0.774139,-0.44221 -0.968509,-0.86961 -0.145368,-0.31964 -0.134964,-0.85663 0.02304,-1.18651 0.12948,-0.27043 0.435973,-0.58122 0.722485,-0.73262 0.161358,-0.0853 0.25251,-0.1 0.619908,-0.10007 0.523782,-1.4e-4 0.731466,0.0795 1.057332,0.40536 0.327732,0.32773 0.407226,0.53437 0.40674,1.05733 -3.72e-4,0.373 -0.01482,0.45917 -0.107688,0.64299 -0.154266,0.30523 -0.476754,0.60627 -0.768498,0.71741 -0.3039,0.11575 -0.742176,0.145 -0.984762,0.0657 z m 0.787374,-0.82249 c 0.353946,-0.20743 0.453864,-0.63563 0.232062,-0.99451 -0.139452,-0.22563 -0.317178,-0.31947 -0.60543,-0.31966 -0.278934,-1.7e-4 -0.469374,0.10363 -0.633708,0.34544 -0.08456,0.12443 -0.09887,0.19087 -0.08473,0.39319 0.03936,0.5627 0.60495,0.86085 1.091802,0.57554 z"
         id="path852"
         inkscape:connector-curvature="0" />
      <text
         id="text889"
         y="197.47156"
         x="28.561419"
         style="font-style:normal;font-weight:normal;font-size:3.89672756px;line-height:1.25;font-family:sans-serif;letter-spacing:0px;word-spacing:0px;fill:#000000;fill-opacity:1;stroke:none;stroke-width:0.0974182"
         xml:space="preserve"><tspan
           style="font-style:normal;font-variant:normal;font-weight:normal;font-stretch:normal;font-size:6.35000134px;line-height:0;font-family:'JetBrainsMonoExtraBold Nerd Font';-inkscape-font-specification:'JetBrainsMonoExtraBold Nerd Font';fill:#ffffff;stroke-width:0.0974182"
           y="197.47156"
           x="28.561419"
           id="tspan887"
           sodipodi:role="line">Ruby for Beginner</tspan></text>
      <path
         inkscape:connector-curvature="0"
         id="path891"
         d="m 26.568125,192.37322 v 9.50644"
         style="fill:#ffffff;stroke:#ffffff;stroke-width:0.31750008;stroke-linecap:butt;stroke-linejoin:miter;stroke-miterlimit:4;stroke-dasharray:none;stroke-opacity:1" />
      <text
         xml:space="preserve"
         style="font-style:normal;font-weight:normal;font-size:3.89672756px;line-height:1.25;font-family:sans-serif;letter-spacing:0px;word-spacing:0px;fill:#000000;fill-opacity:1;stroke:none;stroke-width:0.0974182"
         x="28.561419"
         y="201.46954"
         id="text895"><tspan
           sodipodi:role="line"
           id="tspan893"
           x="28.561419"
           y="201.46954"
           style="font-style:normal;font-variant:normal;font-weight:normal;font-stretch:normal;font-size:2.96333408px;line-height:0;font-family:'JetBrainsMonoMedium Nerd Font';-inkscape-font-specification:'JetBrainsMonoMedium Nerd Font';fill:#ffffff;stroke-width:0.0974182">A Programmer's Best Friend</tspan></text>
      <path
         style="fill:#ffffff;stroke:#ffffff;stroke-width:0.31750008;stroke-linecap:butt;stroke-linejoin:miter;stroke-miterlimit:4;stroke-dasharray:none;stroke-opacity:1"
         d="m 213.89321,192.37322 v 9.50644"
         id="path897"
         inkscape:connector-curvature="0" />
      <text
         id="text901"
         y="195.59505"
         x="215.88646"
         style="font-style:normal;font-weight:normal;font-size:3.89672756px;line-height:1.25;font-family:sans-serif;letter-spacing:0px;word-spacing:0px;fill:#000000;fill-opacity:1;stroke:none;stroke-width:0.0974182"
         xml:space="preserve"><tspan
           id="tspan903"
           style="font-style:normal;font-variant:normal;font-weight:normal;font-stretch:normal;font-size:2.96333408px;line-height:0;font-family:'JetBrainsMonoMedium Nerd Font';-inkscape-font-specification:'JetBrainsMonoMedium Nerd Font';fill:#ffffff;stroke-width:0.0974182"
           y="195.59505"
           x="215.88646"
           sodipodi:role="line">Speaker:</tspan></text>
      <text
         xml:space="preserve"
         style="font-style:normal;font-weight:normal;font-size:6.48378038px;line-height:1.25;font-family:sans-serif;letter-spacing:0px;word-spacing:0px;fill:#000000;fill-opacity:1;stroke:none;stroke-width:0.16209452"
         x="215.72513"
         y="200.5621"
         id="text919"><tspan
           sodipodi:role="line"
           x="215.72513"
           y="200.5621"
           style="font-style:normal;font-variant:normal;font-weight:normal;font-stretch:normal;font-size:4.93070364px;line-height:0;font-family:'JetBrainsMonoMedium Nerd Font';-inkscape-font-specification:'JetBrainsMonoMedium Nerd Font';fill:#ffffff;stroke-width:0.16209452"
           id="tspan917">RIZQI NUR ASSYAUFI</tspan></text>
      <g
         transform="translate(14.684636,0.03500928)"
         id="g933">
        <text
           xml:space="preserve"
           style="font-style:normal;font-weight:normal;font-size:5.59683514px;line-height:1.25;font-family:sans-serif;letter-spacing:0px;word-spacing:0px;fill:#000000;fill-opacity:1;stroke:none;stroke-width:0.13992089"
           x="171.76913"
           y="196.49559"
           id="text923"><tspan
             sodipodi:role="line"
             x="171.76913"
             y="196.49559"
             style="font-style:normal;font-variant:normal;font-weight:normal;font-stretch:normal;font-size:4.2562108px;line-height:0;font-family:'JetBrainsMonoMedium Nerd Font';-inkscape-font-specification:'JetBrainsMonoMedium Nerd Font';fill:#ffffff;stroke-width:0.13992089"
             id="tspan921">2020-09-11</tspan></text>
        <text
           id="text927"
           y="200.69916"
           x="171.67549"
           style="font-style:normal;font-weight:normal;font-size:5.59683514px;line-height:1.25;font-family:sans-serif;letter-spacing:0px;word-spacing:0px;fill:#000000;fill-opacity:1;stroke:none;stroke-width:0.13992089"
           xml:space="preserve"><tspan
             id="tspan925"
             style="font-style:normal;font-variant:normal;font-weight:normal;font-stretch:normal;font-size:4.2562108px;line-height:0;font-family:'JetBrainsMonoMedium Nerd Font';-inkscape-font-specification:'JetBrainsMonoMedium Nerd Font';fill:#ffffff;stroke-width:0.13992089"
             y="200.69916"
             x="171.67549"
             sodipodi:role="line">20.00 WITA</tspan></text>
      </g>
      <path
         inkscape:connector-curvature="0"
         id="path935"
         d="m 184.78904,192.37322 v 9.50644"
         style="fill:#ffffff;stroke:#ffffff;stroke-width:0.31750008;stroke-linecap:butt;stroke-linejoin:miter;stroke-miterlimit:4;stroke-dasharray:none;stroke-opacity:1" />
      <path
         style="fill:#ffffff;stroke:#ffffff;stroke-width:0.31750008;stroke-linecap:butt;stroke-linejoin:miter;stroke-miterlimit:4;stroke-dasharray:none;stroke-opacity:1"
         d="m 95.35982,192.37322 v 9.50644"
         id="path937"
         inkscape:connector-curvature="0" />
      <text
         id="text941"
         y="200.17738"
         x="100.11043"
         style="font-style:normal;font-weight:normal;font-size:12.52599525px;line-height:1.25;font-family:sans-serif;letter-spacing:0px;word-spacing:0px;fill:#000000;fill-opacity:1;stroke:none;stroke-width:0.3131499"
         xml:space="preserve"><tspan
           id="tspan939"
           style="font-style:normal;font-variant:normal;font-weight:normal;font-stretch:normal;font-size:9.52561092px;line-height:0;font-family:'JetBrainsMonoMedium Nerd Font';-inkscape-font-specification:'JetBrainsMonoMedium Nerd Font';fill:#ffffff;fill-opacity:0.14522825;stroke-width:0.3131499"
           y="200.17738"
           x="100.11043"
           sodipodi:role="line">#OnlineMeeting</tspan></text>
    </g>
    <g
       id="g1219"
       transform="translate(0,238.12509)">
      <rect
         style="fill:#cc342d;fill-opacity:1;stroke-width:0.26458332"
         id="rect815-2"
         width="270.93329"
         height="203.2"
         x="5.6441626e-05"
         y="0" />
      <path
         style="fill:#000000;fill-opacity:0.07843137;stroke-width:0.35246795"
         d="m 150.41779,153.75458 c -23.25417,-28.40133 -42.32897,-51.77017 -42.3885,-51.93073 -0.0594,-0.16055 6.2158,-9.706475 13.94513,-21.213102 L 136.02778,59.68952 h 56.84719 56.84718 l 14.03359,20.89181 c 7.71849,11.490448 14.03362,20.98362 14.03362,21.09587 0,0.27246 -84.54463,103.5336 -84.85166,103.63615 -0.13184,0.0441 -19.26576,-23.15743 -42.51991,-51.55877 z m 56.12637,-10.67328 13.4923,-35.63799 h -27.16149 -27.1615 l 13.49229,35.63799 c 7.42077,19.60091 13.57192,35.638 13.66921,35.638 0.0974,0 6.24844,-16.03709 13.66919,-35.638 z m -42.99623,-7.56167 -10.54472,-27.90076 -12.46099,-0.0922 c -12.04011,-0.0892 -12.44525,-0.0704 -11.99546,0.55353 1.05024,1.45702 45.37943,55.50543 45.45925,55.42621 0.0476,-0.0472 -4.6585,-12.64128 -10.45808,-27.98668 z m 71.39674,-0.16141 22.68286,-27.73935 -12.27522,-0.0923 c -6.75138,-0.0509 -12.38591,0.0281 -12.52116,0.17555 -0.17621,0.19198 -18.30304,47.89216 -21.0512,55.39556 -0.17707,0.48343 -0.14203,0.59283 0.1123,0.35112 0.20326,-0.19313 10.57684,-12.83383 23.0524,-28.09049 z M 163.86864,83.911723 c 5.34801,-6.376228 9.77676,-11.748542 9.84162,-11.938454 0.0761,-0.222892 -5.45452,-0.345305 -15.60072,-0.345305 h -15.71865 l -7.8392,11.680382 c -4.31155,6.424194 -7.83918,11.796477 -7.83918,11.938407 0,0.14194 6.17229,0.25806 13.71623,0.25806 h 13.7162 z m 51.41047,10.78363 c -0.35465,-0.44521 -4.84933,-5.817477 -9.98815,-11.938391 l -9.3433,-11.128998 h -3.07269 -3.07268 l -9.34333,11.128998 c -5.13881,6.120914 -9.6335,11.493181 -9.98816,11.938391 l -0.64485,0.80946 h 23.04902 23.04901 z m 43.75831,0.5514 c 0,-0.14196 -3.52764,-5.514213 -7.83918,-11.938407 l -7.83919,-11.680382 h -15.71866 c -10.1462,0 -15.67685,0.122428 -15.60072,0.345305 0.0649,0.189912 4.49359,5.562226 9.84163,11.938454 l 9.72368,11.59309 h 13.71623 c 7.54391,0 13.71621,-0.11616 13.71621,-0.25806 z"
         id="path869-3"
         inkscape:connector-curvature="0" />
      <path
         inkscape:connector-curvature="0"
         id="path852-8"
         d="m 49.423574,36.616668 c -1.872078,-1.869055 -3.403789,-3.46211 -3.403789,-3.540035 0,-0.07819 1.563933,-1.702091 3.475439,-3.609179 l 3.475418,-3.467467 0.859587,0.851895 0.859567,0.851893 -2.615214,2.618036 c -1.438361,1.439931 -2.615193,2.66342 -2.615193,2.718854 0,0.05556 1.165812,1.269605 2.590697,2.69819 2.569637,2.576311 2.588562,2.599869 2.328892,2.89966 -0.385424,0.444996 -1.397036,1.390188 -1.479986,1.382801 -0.03953,-0.0033 -1.603363,-1.535591 -3.475418,-3.404648 z m 10.641274,-0.372925 c -1.124413,-0.323083 -1.721675,-0.649627 -2.36575,-1.29373 -2.234762,-2.234694 -1.887529,-5.858978 0.7294,-7.613475 1.455233,-0.975603 3.097691,-1.14899 4.610158,-0.486653 l 0.609119,0.266851 v -1.926719 -1.926751 h 1.21818 1.218197 v 6.592587 6.592586 h -1.218197 c -1.179572,0 -1.21818,-0.01 -1.21818,-0.333363 v -0.333398 l -0.967394,0.329737 c -1.089631,0.371329 -1.679946,0.401209 -2.615533,0.132428 z m 2.524117,-2.879264 c 0.640065,-0.488218 0.965899,-1.139973 0.965899,-1.932242 0,-1.782312 -1.812328,-2.92721 -3.409621,-2.154007 -2.401046,1.162366 -1.387177,4.803221 1.261201,4.528982 0.444038,-0.04592 0.872864,-0.206626 1.182521,-0.442733 z m 8.540353,2.872409 c -1.561717,-0.487519 -2.680239,-1.429051 -3.286502,-2.766467 -0.531061,-1.171483 -0.5317,-2.90352 -0.0015,-4.07304 0.903924,-1.993764 3.151484,-3.227601 5.192296,-2.850316 2.429914,0.449222 3.96951,2.184919 4.174359,4.706063 l 0.09603,1.182363 h -3.531874 c -1.942528,0 -3.531874,0.03461 -3.531874,0.07653 0,0.260863 0.559088,0.843243 1.050398,1.09389 0.728647,0.371728 1.783999,0.302786 2.406252,-0.157382 l 0.428609,-0.31676 0.842779,0.902302 c 0.942418,1.008976 0.940622,1.041118 -0.09263,1.646625 -1.214489,0.711746 -2.592638,0.91631 -3.746415,0.556094 z m 3.267216,-5.970078 c 0,-0.08917 -0.223999,-0.373492 -0.497763,-0.631659 -0.890172,-0.839582 -2.315074,-0.826573 -3.170552,0.02995 -0.268344,0.268183 -0.487858,0.550173 -0.487858,0.626368 0,0.08285 0.83601,0.138417 2.078086,0.138417 1.451317,0 2.078087,-0.04891 2.078087,-0.162373 z m 4.952811,3.569949 c -0.463121,-1.44073 -1.186534,-3.663946 -1.607574,-4.940505 -0.421039,-1.276527 -0.765514,-2.356775 -0.765514,-2.400529 0,-0.04359 0.59995,-0.07953 1.333289,-0.07953 h 1.333269 l 1.1947,3.672065 c 1.303663,4.006958 1.215923,3.885578 1.696534,2.347258 0.08624,-0.275835 0.553742,-1.743117 1.038983,-3.260475 L 84.455279,26.4162 h 1.357883 c 1.342374,0 1.356754,0.0033 1.257546,0.322418 -0.287942,0.925294 -2.433019,7.503906 -2.768811,8.491555 l -0.389838,1.146527 -1.860339,0.03959 -1.860318,0.03959 z m -24.588957,-8.067255 -0.78015,-0.790006 2.637534,-2.640395 c 2.27567,-2.278184 2.612079,-2.671107 2.452012,-2.863958 -0.102016,-0.123111 -1.274739,-1.326936 -2.606034,-2.675432 l -2.420506,-2.45187 0.394528,-0.451683 c 0.216974,-0.248551 0.598498,-0.629795 0.847807,-0.847569 l 0.453281,-0.395951 3.273705,3.266797 c 1.800532,1.796753 3.365702,3.382188 3.478179,3.523166 0.187264,0.234577 -0.08505,0.546114 -3.22352,3.686605 -1.885413,1.886624 -3.495204,3.430235 -3.577315,3.430235 -0.08205,0 -0.500416,-0.355458 -0.929521,-0.789939 z M 14.060104,19.321955 v -6.520949 h 1.28985 1.289849 v 1.866859 1.866794 l 0.465778,-0.250548 c 0.353182,-0.18999 0.812213,-0.251546 1.898949,-0.253874 1.218761,-0.0017 1.53431,0.04692 2.109112,0.332066 1.020296,0.506352 1.912264,1.36906 2.361592,2.284173 0.3986,0.811832 0.402472,0.846536 0.447751,4.007691 l 0.04552,3.188804 h -1.228019 -1.22806 l -0.004,-2.758848 c -0.0015,-2.594012 -0.02163,-2.79282 -0.324646,-3.327886 -0.48205,-0.851096 -1.122752,-1.222391 -2.109368,-1.222391 -0.900477,0 -1.520316,0.314764 -2.064912,1.049104 -0.277333,0.373824 -0.30312,0.623905 -0.34386,3.332112 l -0.04412,2.927909 H 15.3399 14.058236 Z m 14.442705,6.212241 c -1.114427,-0.388565 -2.13049,-1.32627 -2.707827,-2.499051 -0.401335,-0.815194 -0.455836,-1.06827 -0.455836,-2.116409 0,-0.973108 0.06688,-1.336851 0.366937,-1.991967 0.489874,-1.07 1.346547,-1.96994 2.35744,-2.476458 0.733154,-0.367436 0.980229,-0.415616 2.119729,-0.413819 1.487495,0.0017 2.194478,0.267517 3.293751,1.235034 1.115245,0.981693 1.650677,2.275888 1.650677,3.989791 v 0.707022 l -3.532257,0.03827 -3.532279,0.03827 0.378755,0.449987 c 0.777375,0.923565 2.015701,1.104105 3.081076,0.449155 l 0.479812,-0.294801 0.881687,0.886499 0.881707,0.886531 -0.501614,0.422803 c -0.644016,0.542885 -2.098548,1.000991 -3.13224,0.98655 -0.444939,-0.0067 -1.178213,-0.140081 -1.629518,-0.297463 z m 3.776758,-5.81812 c -0.17129,-0.317759 -0.712991,-0.8118 -1.1195,-1.021121 -0.442461,-0.227922 -1.560859,-0.199973 -2.046143,0.05091 -0.410078,0.21195 -1.008757,0.863139 -1.008757,1.097051 0,0.06821 0.969648,0.124108 2.15479,0.124108 2.008151,0 2.145603,-0.01664 2.01961,-0.25088 z m 4.137986,-0.394121 v -6.520949 h 1.289849 1.289849 v 6.520949 6.520916 h -1.289849 -1.289849 z m 4.153135,6.449245 c -0.0015,-0.03926 -0.004,-2.957688 -0.006,-6.485114 l -0.004,-6.413377 1.224627,-0.04126 1.224647,-0.04126 v 6.526505 6.526507 h -1.218198 c -0.67001,0 -1.219557,-0.03327 -1.221234,-0.07154 z m 7.066573,-0.127436 c -1.473457,-0.481597 -2.575808,-1.471408 -3.222539,-2.893504 -0.483687,-1.063545 -0.449069,-2.850249 0.07666,-3.947866 0.430821,-0.899808 1.450622,-1.933906 2.403939,-2.437662 0.53689,-0.28382 0.840182,-0.332766 2.062632,-0.332965 1.74279,-4.66e-4 2.433821,0.264522 3.518082,1.348763 1.09047,1.090429 1.354972,1.77802 1.353355,3.518076 -0.0012,1.24109 -0.04931,1.527773 -0.358313,2.139434 -0.513292,1.015598 -1.586314,2.017254 -2.557039,2.387052 -1.011172,0.385138 -2.469456,0.482462 -3.276618,0.218606 z m 2.619845,-2.736721 c 1.177692,-0.690152 1.510151,-2.114945 0.772145,-3.309021 -0.464002,-0.750742 -1.055353,-1.062978 -2.014459,-1.063644 -0.928102,-5.19e-4 -1.561757,0.344811 -2.10855,1.14939 -0.281357,0.414051 -0.328972,0.635119 -0.281923,1.308268 0.130963,1.872284 2.012862,2.864358 3.632773,1.915007 z"
         style="fill:#ffffff;fill-opacity:1;stroke-width:0.14331695" />
      <g
         transform="matrix(0.50439022,0,0,0.50439022,6.83314,134.40911)"
         id="g1174">
        <g
           id="g1302"
           transform="matrix(1.0837259,0,0,1.0837259,-1.1993208,-0.3565859)">
          <text
             xml:space="preserve"
             style="font-style:normal;font-weight:normal;font-size:10.79321575px;line-height:1.25;font-family:sans-serif;letter-spacing:0px;word-spacing:0px;fill:#000000;fill-opacity:1;stroke:none;stroke-width:0.26983041"
             x="13.823325"
             y="93.996117"
             id="text889-5"><tspan
               id="tspan1290"
               sodipodi:role="line"
               x="13.823325"
               y="93.996117"
               style="font-style:normal;font-variant:normal;font-weight:normal;font-stretch:normal;font-size:17.58833122px;line-height:0;font-family:'JetBrainsMonoExtraBold Nerd Font';-inkscape-font-specification:'JetBrainsMonoExtraBold Nerd Font';fill:#ffffff;stroke-width:0.26983041">Ruby for Beginner</tspan></text>
          <text
             id="text895-5"
             y="102.81942"
             x="13.460798"
             style="font-style:normal;font-weight:normal;font-size:11.13316727px;line-height:1.25;font-family:sans-serif;letter-spacing:0px;word-spacing:0px;fill:#000000;fill-opacity:1;stroke:none;stroke-width:0.27832919"
             xml:space="preserve"><tspan
               style="font-style:normal;font-variant:normal;font-weight:normal;font-stretch:normal;font-size:8.46640968px;line-height:0;font-family:'JetBrainsMonoMedium Nerd Font';-inkscape-font-specification:'JetBrainsMonoMedium Nerd Font';fill:#ffffff;stroke-width:0.27832919"
               y="102.81942"
               x="13.460798"
               id="tspan893-9"
               sodipodi:role="line">A Programmer's Best Friend</tspan></text>
        </g>
      </g>
      <g
         id="g1288"
         transform="translate(-4.8172899,-7.5971061)">
        <text
           id="text923-8"
           y="30.701666"
           x="195.11772"
           style="font-style:normal;font-weight:normal;font-size:7.23819399px;line-height:1.25;font-family:sans-serif;letter-spacing:0px;word-spacing:0px;fill:#000000;fill-opacity:1;stroke:none;stroke-width:0.18095486"
           xml:space="preserve"><tspan
             id="tspan921-3"
             style="font-style:normal;font-variant:normal;font-weight:normal;font-stretch:normal;font-size:5.50441074px;line-height:0;font-family:'JetBrainsMonoMedium Nerd Font';-inkscape-font-specification:'JetBrainsMonoMedium Nerd Font';fill:#ffffff;stroke-width:0.18095486"
             y="30.701666"
             x="195.11772"
             sodipodi:role="line">2020-09-11</tspan></text>
        <text
           xml:space="preserve"
           style="font-style:normal;font-weight:normal;font-size:7.23819399px;line-height:1.25;font-family:sans-serif;letter-spacing:0px;word-spacing:0px;fill:#000000;fill-opacity:1;stroke:none;stroke-width:0.18095486"
           x="232.18634"
           y="30.701666"
           id="text927-6"><tspan
             sodipodi:role="line"
             x="232.18634"
             y="30.701666"
             style="font-style:normal;font-variant:normal;font-weight:normal;font-stretch:normal;font-size:5.50441074px;line-height:0;font-family:'JetBrainsMonoMedium Nerd Font';-inkscape-font-specification:'JetBrainsMonoMedium Nerd Font';fill:#ffffff;stroke-width:0.18095486"
             id="tspan925-7">20.00 WITA</tspan></text>
        <g
           transform="matrix(1.299335,0,0,1.299335,-12.816783,-3.2216063)"
           id="g1275">
          <text
             xml:space="preserve"
             style="font-style:normal;font-weight:normal;font-size:8.47942734px;line-height:1.25;font-family:sans-serif;letter-spacing:0px;word-spacing:0px;fill:#000000;fill-opacity:1;stroke:none;stroke-width:0.21198571"
             x="160.10025"
             y="21.792078"
             id="text927-6-6"><tspan
               sodipodi:role="line"
               x="160.10025"
               y="21.792078"
               style="font-style:normal;font-variant:normal;font-weight:normal;font-stretch:normal;font-size:6.44832897px;line-height:0;font-family:'JetBrainsMonoMedium Nerd Font';-inkscape-font-specification:'JetBrainsMonoMedium Nerd Font';fill:#ffffff;stroke-width:0.21198571"
               id="tspan1261">#ONLINEMEETING</tspan></text>
        </g>
      </g>
    </g>
    <g
       id="g1352"
       transform="translate(-3.3333335e-8,-232.83342)">
      <rect
         y="0"
         x="5.6441626e-05"
         height="203.2"
         width="270.93329"
         id="rect1304"
         style="fill:#cc342d;fill-opacity:1;stroke-width:0.26458332" />
      <path
         inkscape:connector-curvature="0"
         id="path1306"
         d="m 150.41779,153.75458 c -23.25417,-28.40133 -42.32897,-51.77017 -42.3885,-51.93073 -0.0594,-0.16055 6.2158,-9.706475 13.94513,-21.213102 L 136.02778,59.68952 h 56.84719 56.84718 l 14.03359,20.89181 c 7.71849,11.490448 14.03362,20.98362 14.03362,21.09587 0,0.27246 -84.54463,103.5336 -84.85166,103.63615 -0.13184,0.0441 -19.26576,-23.15743 -42.51991,-51.55877 z m 56.12637,-10.67328 13.4923,-35.63799 h -27.16149 -27.1615 l 13.49229,35.63799 c 7.42077,19.60091 13.57192,35.638 13.66921,35.638 0.0974,0 6.24844,-16.03709 13.66919,-35.638 z m -42.99623,-7.56167 -10.54472,-27.90076 -12.46099,-0.0922 c -12.04011,-0.0892 -12.44525,-0.0704 -11.99546,0.55353 1.05024,1.45702 45.37943,55.50543 45.45925,55.42621 0.0476,-0.0472 -4.6585,-12.64128 -10.45808,-27.98668 z m 71.39674,-0.16141 22.68286,-27.73935 -12.27522,-0.0923 c -6.75138,-0.0509 -12.38591,0.0281 -12.52116,0.17555 -0.17621,0.19198 -18.30304,47.89216 -21.0512,55.39556 -0.17707,0.48343 -0.14203,0.59283 0.1123,0.35112 0.20326,-0.19313 10.57684,-12.83383 23.0524,-28.09049 z M 163.86864,83.911723 c 5.34801,-6.376228 9.77676,-11.748542 9.84162,-11.938454 0.0761,-0.222892 -5.45452,-0.345305 -15.60072,-0.345305 h -15.71865 l -7.8392,11.680382 c -4.31155,6.424194 -7.83918,11.796477 -7.83918,11.938407 0,0.14194 6.17229,0.25806 13.71623,0.25806 h 13.7162 z m 51.41047,10.78363 c -0.35465,-0.44521 -4.84933,-5.817477 -9.98815,-11.938391 l -9.3433,-11.128998 h -3.07269 -3.07268 l -9.34333,11.128998 c -5.13881,6.120914 -9.6335,11.493181 -9.98816,11.938391 l -0.64485,0.80946 h 23.04902 23.04901 z m 43.75831,0.5514 c 0,-0.14196 -3.52764,-5.514213 -7.83918,-11.938407 l -7.83919,-11.680382 h -15.71866 c -10.1462,0 -15.67685,0.122428 -15.60072,0.345305 0.0649,0.189912 4.49359,5.562226 9.84163,11.938454 l 9.72368,11.59309 h 13.71623 c 7.54391,0 13.71621,-0.11616 13.71621,-0.25806 z"
         style="fill:#000000;fill-opacity:0.21161828;stroke-width:0.35246795" />
      <path
         style="fill:#ffffff;fill-opacity:1;stroke-width:0.14331695"
         d="m 49.423574,36.616668 c -1.872078,-1.869055 -3.403789,-3.46211 -3.403789,-3.540035 0,-0.07819 1.563933,-1.702091 3.475439,-3.609179 l 3.475418,-3.467467 0.859587,0.851895 0.859567,0.851893 -2.615214,2.618036 c -1.438361,1.439931 -2.615193,2.66342 -2.615193,2.718854 0,0.05556 1.165812,1.269605 2.590697,2.69819 2.569637,2.576311 2.588562,2.599869 2.328892,2.89966 -0.385424,0.444996 -1.397036,1.390188 -1.479986,1.382801 -0.03953,-0.0033 -1.603363,-1.535591 -3.475418,-3.404648 z m 10.641274,-0.372925 c -1.124413,-0.323083 -1.721675,-0.649627 -2.36575,-1.29373 -2.234762,-2.234694 -1.887529,-5.858978 0.7294,-7.613475 1.455233,-0.975603 3.097691,-1.14899 4.610158,-0.486653 l 0.609119,0.266851 v -1.926719 -1.926751 h 1.21818 1.218197 v 6.592587 6.592586 h -1.218197 c -1.179572,0 -1.21818,-0.01 -1.21818,-0.333363 v -0.333398 l -0.967394,0.329737 c -1.089631,0.371329 -1.679946,0.401209 -2.615533,0.132428 z m 2.524117,-2.879264 c 0.640065,-0.488218 0.965899,-1.139973 0.965899,-1.932242 0,-1.782312 -1.812328,-2.92721 -3.409621,-2.154007 -2.401046,1.162366 -1.387177,4.803221 1.261201,4.528982 0.444038,-0.04592 0.872864,-0.206626 1.182521,-0.442733 z m 8.540353,2.872409 c -1.561717,-0.487519 -2.680239,-1.429051 -3.286502,-2.766467 -0.531061,-1.171483 -0.5317,-2.90352 -0.0015,-4.07304 0.903924,-1.993764 3.151484,-3.227601 5.192296,-2.850316 2.429914,0.449222 3.96951,2.184919 4.174359,4.706063 l 0.09603,1.182363 h -3.531874 c -1.942528,0 -3.531874,0.03461 -3.531874,0.07653 0,0.260863 0.559088,0.843243 1.050398,1.09389 0.728647,0.371728 1.783999,0.302786 2.406252,-0.157382 l 0.428609,-0.31676 0.842779,0.902302 c 0.942418,1.008976 0.940622,1.041118 -0.09263,1.646625 -1.214489,0.711746 -2.592638,0.91631 -3.746415,0.556094 z m 3.267216,-5.970078 c 0,-0.08917 -0.223999,-0.373492 -0.497763,-0.631659 -0.890172,-0.839582 -2.315074,-0.826573 -3.170552,0.02995 -0.268344,0.268183 -0.487858,0.550173 -0.487858,0.626368 0,0.08285 0.83601,0.138417 2.078086,0.138417 1.451317,0 2.078087,-0.04891 2.078087,-0.162373 z m 4.952811,3.569949 c -0.463121,-1.44073 -1.186534,-3.663946 -1.607574,-4.940505 -0.421039,-1.276527 -0.765514,-2.356775 -0.765514,-2.400529 0,-0.04359 0.59995,-0.07953 1.333289,-0.07953 h 1.333269 l 1.1947,3.672065 c 1.303663,4.006958 1.215923,3.885578 1.696534,2.347258 0.08624,-0.275835 0.553742,-1.743117 1.038983,-3.260475 L 84.455279,26.4162 h 1.357883 c 1.342374,0 1.356754,0.0033 1.257546,0.322418 -0.287942,0.925294 -2.433019,7.503906 -2.768811,8.491555 l -0.389838,1.146527 -1.860339,0.03959 -1.860318,0.03959 z m -24.588957,-8.067255 -0.78015,-0.790006 2.637534,-2.640395 c 2.27567,-2.278184 2.612079,-2.671107 2.452012,-2.863958 -0.102016,-0.123111 -1.274739,-1.326936 -2.606034,-2.675432 l -2.420506,-2.45187 0.394528,-0.451683 c 0.216974,-0.248551 0.598498,-0.629795 0.847807,-0.847569 l 0.453281,-0.395951 3.273705,3.266797 c 1.800532,1.796753 3.365702,3.382188 3.478179,3.523166 0.187264,0.234577 -0.08505,0.546114 -3.22352,3.686605 -1.885413,1.886624 -3.495204,3.430235 -3.577315,3.430235 -0.08205,0 -0.500416,-0.355458 -0.929521,-0.789939 z M 14.060104,19.321955 v -6.520949 h 1.28985 1.289849 v 1.866859 1.866794 l 0.465778,-0.250548 c 0.353182,-0.18999 0.812213,-0.251546 1.898949,-0.253874 1.218761,-0.0017 1.53431,0.04692 2.109112,0.332066 1.020296,0.506352 1.912264,1.36906 2.361592,2.284173 0.3986,0.811832 0.402472,0.846536 0.447751,4.007691 l 0.04552,3.188804 h -1.228019 -1.22806 l -0.004,-2.758848 c -0.0015,-2.594012 -0.02163,-2.79282 -0.324646,-3.327886 -0.48205,-0.851096 -1.122752,-1.222391 -2.109368,-1.222391 -0.900477,0 -1.520316,0.314764 -2.064912,1.049104 -0.277333,0.373824 -0.30312,0.623905 -0.34386,3.332112 l -0.04412,2.927909 H 15.3399 14.058236 Z m 14.442705,6.212241 c -1.114427,-0.388565 -2.13049,-1.32627 -2.707827,-2.499051 -0.401335,-0.815194 -0.455836,-1.06827 -0.455836,-2.116409 0,-0.973108 0.06688,-1.336851 0.366937,-1.991967 0.489874,-1.07 1.346547,-1.96994 2.35744,-2.476458 0.733154,-0.367436 0.980229,-0.415616 2.119729,-0.413819 1.487495,0.0017 2.194478,0.267517 3.293751,1.235034 1.115245,0.981693 1.650677,2.275888 1.650677,3.989791 v 0.707022 l -3.532257,0.03827 -3.532279,0.03827 0.378755,0.449987 c 0.777375,0.923565 2.015701,1.104105 3.081076,0.449155 l 0.479812,-0.294801 0.881687,0.886499 0.881707,0.886531 -0.501614,0.422803 c -0.644016,0.542885 -2.098548,1.000991 -3.13224,0.98655 -0.444939,-0.0067 -1.178213,-0.140081 -1.629518,-0.297463 z m 3.776758,-5.81812 c -0.17129,-0.317759 -0.712991,-0.8118 -1.1195,-1.021121 -0.442461,-0.227922 -1.560859,-0.199973 -2.046143,0.05091 -0.410078,0.21195 -1.008757,0.863139 -1.008757,1.097051 0,0.06821 0.969648,0.124108 2.15479,0.124108 2.008151,0 2.145603,-0.01664 2.01961,-0.25088 z m 4.137986,-0.394121 v -6.520949 h 1.289849 1.289849 v 6.520949 6.520916 h -1.289849 -1.289849 z m 4.153135,6.449245 c -0.0015,-0.03926 -0.004,-2.957688 -0.006,-6.485114 l -0.004,-6.413377 1.224627,-0.04126 1.224647,-0.04126 v 6.526505 6.526507 h -1.218198 c -0.67001,0 -1.219557,-0.03327 -1.221234,-0.07154 z m 7.066573,-0.127436 c -1.473457,-0.481597 -2.575808,-1.471408 -3.222539,-2.893504 -0.483687,-1.063545 -0.449069,-2.850249 0.07666,-3.947866 0.430821,-0.899808 1.450622,-1.933906 2.403939,-2.437662 0.53689,-0.28382 0.840182,-0.332766 2.062632,-0.332965 1.74279,-4.66e-4 2.433821,0.264522 3.518082,1.348763 1.09047,1.090429 1.354972,1.77802 1.353355,3.518076 -0.0012,1.24109 -0.04931,1.527773 -0.358313,2.139434 -0.513292,1.015598 -1.586314,2.017254 -2.557039,2.387052 -1.011172,0.385138 -2.469456,0.482462 -3.276618,0.218606 z m 2.619845,-2.736721 c 1.177692,-0.690152 1.510151,-2.114945 0.772145,-3.309021 -0.464002,-0.750742 -1.055353,-1.062978 -2.014459,-1.063644 -0.928102,-5.19e-4 -1.561757,0.344811 -2.10855,1.14939 -0.281357,0.414051 -0.328972,0.635119 -0.281923,1.308268 0.130963,1.872284 2.012862,2.864358 3.632773,1.915007 z"
         id="path1308"
         inkscape:connector-curvature="0" />
      <g
         id="g1324"
         transform="translate(-0.26615886,47.435912)">
        <g
           transform="matrix(1.0837259,0,0,1.0837259,-1.1993208,-0.3565859)"
           id="g1322">
          <text
             id="text1316"
             y="32.027584"
             x="12.494019"
             style="font-style:normal;font-weight:normal;font-size:23.34305px;line-height:1.25;font-family:sans-serif;letter-spacing:0px;word-spacing:0px;fill:#000000;fill-opacity:1;stroke:none;stroke-width:0.58357626"
             xml:space="preserve"><tspan
               style="font-style:normal;font-variant:normal;font-weight:normal;font-stretch:normal;font-size:38.03919983px;line-height:0;font-family:'JetBrainsMonoExtraBold Nerd Font';-inkscape-font-specification:'JetBrainsMonoExtraBold Nerd Font';fill:#ffffff;stroke-width:0.58357626"
               y="32.027584"
               x="12.494019"
               id="tspan1310"
               sodipodi:role="line">Ruby</tspan><tspan
               style="font-style:normal;font-variant:normal;font-weight:normal;font-stretch:normal;font-size:38.03919983px;line-height:0;font-family:'JetBrainsMonoExtraBold Nerd Font';-inkscape-font-specification:'JetBrainsMonoExtraBold Nerd Font';fill:#ffffff;stroke-width:0.58357626"
               y="61.206398"
               x="12.494019"
               sodipodi:role="line"
               id="tspan1312">for</tspan><tspan
               style="font-style:normal;font-variant:normal;font-weight:normal;font-stretch:normal;font-size:38.03919983px;line-height:0;font-family:'JetBrainsMonoExtraBold Nerd Font';-inkscape-font-specification:'JetBrainsMonoExtraBold Nerd Font';fill:#ffffff;stroke-width:0.58357626"
               y="90.385208"
               x="12.494019"
               sodipodi:role="line"
               id="tspan1314">Beginner</tspan></text>
          <text
             xml:space="preserve"
             style="font-style:normal;font-weight:normal;font-size:14.71324158px;line-height:1.25;font-family:sans-serif;letter-spacing:0px;word-spacing:0px;fill:#000000;fill-opacity:1;stroke:none;stroke-width:0.36783105"
             x="13.183101"
             y="109.64722"
             id="text1320"><tspan
               sodipodi:role="line"
               id="tspan1318"
               x="13.183101"
               y="109.64722"
               style="font-style:normal;font-variant:normal;font-weight:normal;font-stretch:normal;font-size:11.18893909px;line-height:0;font-family:'JetBrainsMonoMedium Nerd Font';-inkscape-font-specification:'JetBrainsMonoMedium Nerd Font';fill:#ffffff;stroke-width:0.36783105">A Programmer's Best Friend</tspan></text>
        </g>
      </g>
      <g
         id="g1334"
         transform="matrix(1.327383,0,0,1.327383,-228.66503,1.7546487)">
        <text
           xml:space="preserve"
           style="font-style:normal;font-weight:normal;font-size:3.89672756px;line-height:1.25;font-family:sans-serif;letter-spacing:0px;word-spacing:0px;fill:#000000;fill-opacity:1;stroke:none;stroke-width:0.0974182"
           x="182.67476"
           y="137.72411"
           id="text1328"><tspan
             sodipodi:role="line"
             x="182.67476"
             y="137.72411"
             style="font-style:normal;font-variant:normal;font-weight:normal;font-stretch:normal;font-size:2.96333408px;line-height:0;font-family:'JetBrainsMonoMedium Nerd Font';-inkscape-font-specification:'JetBrainsMonoMedium Nerd Font';fill:#ffffff;stroke-width:0.0974182"
             id="tspan1326">Speaker:</tspan></text>
        <text
           id="text1332"
           y="142.69116"
           x="182.51343"
           style="font-style:normal;font-weight:normal;font-size:6.48378038px;line-height:1.25;font-family:sans-serif;letter-spacing:0px;word-spacing:0px;fill:#000000;fill-opacity:1;stroke:none;stroke-width:0.16209452"
           xml:space="preserve"><tspan
             id="tspan1330"
             style="font-style:normal;font-variant:normal;font-weight:normal;font-stretch:normal;font-size:4.93070364px;line-height:0;font-family:'JetBrainsMonoMedium Nerd Font';-inkscape-font-specification:'JetBrainsMonoMedium Nerd Font';fill:#ffffff;stroke-width:0.16209452"
             y="142.69116"
             x="182.51343"
             sodipodi:role="line">RIZQI NUR ASSYAUFI</tspan></text>
      </g>
      <g
         transform="translate(-4.8172899,-7.5971061)"
         id="g1350">
        <text
           xml:space="preserve"
           style="font-style:normal;font-weight:normal;font-size:7.23819399px;line-height:1.25;font-family:sans-serif;letter-spacing:0px;word-spacing:0px;fill:#000000;fill-opacity:1;stroke:none;stroke-width:0.18095486"
           x="195.11772"
           y="30.701666"
           id="text1338"><tspan
             sodipodi:role="line"
             x="195.11772"
             y="30.701666"
             style="font-style:normal;font-variant:normal;font-weight:normal;font-stretch:normal;font-size:5.50441074px;line-height:0;font-family:'JetBrainsMonoMedium Nerd Font';-inkscape-font-specification:'JetBrainsMonoMedium Nerd Font';fill:#ffffff;stroke-width:0.18095486"
             id="tspan1336">2020-09-11</tspan></text>
        <text
           id="text1342"
           y="30.701666"
           x="232.18634"
           style="font-style:normal;font-weight:normal;font-size:7.23819399px;line-height:1.25;font-family:sans-serif;letter-spacing:0px;word-spacing:0px;fill:#000000;fill-opacity:1;stroke:none;stroke-width:0.18095486"
           xml:space="preserve"><tspan
             id="tspan1340"
             style="font-style:normal;font-variant:normal;font-weight:normal;font-stretch:normal;font-size:5.50441074px;line-height:0;font-family:'JetBrainsMonoMedium Nerd Font';-inkscape-font-specification:'JetBrainsMonoMedium Nerd Font';fill:#ffffff;stroke-width:0.18095486"
             y="30.701666"
             x="232.18634"
             sodipodi:role="line">20.00 WITA</tspan></text>
        <g
           id="g1348"
           transform="matrix(1.299335,0,0,1.299335,-12.816783,-3.2216063)">
          <text
             id="text1346"
             y="21.792078"
             x="160.10025"
             style="font-style:normal;font-weight:normal;font-size:8.47942734px;line-height:1.25;font-family:sans-serif;letter-spacing:0px;word-spacing:0px;fill:#000000;fill-opacity:1;stroke:none;stroke-width:0.21198571"
             xml:space="preserve"><tspan
               id="tspan1344"
               style="font-style:normal;font-variant:normal;font-weight:normal;font-stretch:normal;font-size:6.44832897px;line-height:0;font-family:'JetBrainsMonoMedium Nerd Font';-inkscape-font-specification:'JetBrainsMonoMedium Nerd Font';fill:#ffffff;stroke-width:0.21198571"
               y="21.792078"
               x="160.10025"
               sodipodi:role="line">#ONLINEMEETING</tspan></text>
        </g>
      </g>
    </g>
  </g>
</svg>
